<svg xmlns="http://www.w3.org/2000/svg" viewBox="0 0 511.904 511.904" style="enable-background:new 0 0 511.904 511.904" xml:space="preserve" width="512" height="512"><path d="M222.025 417.764c-33.872 35.124-89.034 38.364-126.784 7.445a90.495 90.495 0 0 1-30.72-78.293 96.23 96.23 0 0 1 28.864-57.173l61.355-61.397c12.492-12.496 12.492-32.752 0-45.248-12.496-12.492-32.752-12.492-45.248 0l-60.053 60.075a162.699 162.699 0 0 0-48.79 99.348c-7.757 85.138 54.972 160.445 140.11 168.202a154.794 154.794 0 0 0 123.42-44.618l64.171-64.149c12.492-12.496 12.492-32.752 0-45.248-12.496-12.492-32.752-12.492-45.248 0l-61.077 61.056zM451.358 31.289C387.651-15.517 299.186-8.179 244.062 48.484L183.667 108.9c-12.492 12.496-12.492 32.752 0 45.248 12.496 12.492 32.752 12.492 45.248 0l61.355-61.291c33.132-34.267 86.738-38.127 124.437-8.96 38.803 31.818 44.466 89.067 12.648 127.87a90.625 90.625 0 0 1-5.907 6.53l-64.171 64.171c-12.492 12.496-12.492 32.752 0 45.248 12.496 12.492 32.752 12.492 45.248 0l64.171-64.171c60.413-60.606 60.257-158.711-.349-219.124a155.064 155.064 0 0 0-14.989-13.132z"/><path d="m183.667 282.525 99.425-99.425c12.497-12.497 32.758-12.497 45.255 0s12.497 32.758 0 45.255l-99.425 99.425c-12.497 12.497-32.758 12.497-45.255 0s-12.497-32.758 0-45.255z"/></svg>